<?xml version="1.0" encoding="UTF-8"?>
<!DOCTYPE svg PUBLIC "-//W3C//DTD SVG 1.1//EN" "http://www.w3.org/Graphics/SVG/1.1/DTD/svg11.dtd">
<!-- Creator: CorelDRAW X6 -->
<svg xmlns="http://www.w3.org/2000/svg" xml:space="preserve" width="7.11111in" height="7.11111in" version="1.1" style="shape-rendering:geometricPrecision; text-rendering:geometricPrecision; image-rendering:optimizeQuality; fill-rule:evenodd; clip-rule:evenodd"
viewBox="0 0 7111 7111"
 xmlns:xlink="http://www.w3.org/1999/xlink">
 <defs>
  <style type="text/css">
   <![CDATA[
    .fil2 {fill:#454545;fill-rule:nonzero}
    .fil1 {fill:#EBEBEC;fill-rule:nonzero}
    .fil0 {fill:white;fill-rule:nonzero}
   ]]>
  </style>
 </defs>
 <g id="Layer_x0020_1">
  <metadata id="CorelCorpID_0Corel-Layer"/>
  <path class="fil0" d="M3556 7028c-1915,0 -3472,-1558 -3472,-3472 0,-1915 1558,-3472 3472,-3472 1914,0 3472,1558 3472,3472 0,1914 -1558,3472 -3472,3472z"/>
  <path class="fil1" d="M3556 167c1869,0 3389,1520 3389,3389 0,1869 -1520,3389 -3389,3389 -1869,0 -3389,-1520 -3389,-3389 0,-1869 1520,-3389 3389,-3389zm0 -167c-1964,0 -3556,1592 -3556,3556 0,1964 1592,3556 3556,3556 1964,0 3556,-1592 3556,-3556 0,-1964 -1592,-3556 -3556,-3556l0 0z"/>
  <path class="fil2" d="M3042 5534l818 0 0 -1979 545 0 72 -682 -618 0 1 -341c0,-178 17,-273 272,-273l341 0 0 -682 -546 0c-655,0 -886,331 -886,887l0 409 -408 0 0 682 408 0 0 1978z"/>
 </g>
</svg>
