<?xml version="1.0" encoding="UTF-8"?>
<!DOCTYPE svg PUBLIC "-//W3C//DTD SVG 1.1//EN" "http://www.w3.org/Graphics/SVG/1.1/DTD/svg11.dtd">
<!-- Creator: CorelDRAW X6 -->
<svg xmlns="http://www.w3.org/2000/svg" xml:space="preserve" width="7.11111in" height="7.11111in" version="1.1" style="shape-rendering:geometricPrecision; text-rendering:geometricPrecision; image-rendering:optimizeQuality; fill-rule:evenodd; clip-rule:evenodd"
viewBox="0 0 7111 7111"
 xmlns:xlink="http://www.w3.org/1999/xlink">
 <defs>
  <style type="text/css">
   <![CDATA[
    .fil0 {fill:black}
   ]]>
  </style>
 </defs>
 <g id="Layer_x0020_1">
  <metadata id="CorelCorpID_0Corel-Layer"/>
  <path class="fil0" d="M3556 0c-1964,0 -3556,1592 -3556,3556 0,1964 1592,3556 3556,3556 1964,0 3556,-1592 3556,-3556 0,-1964 -1592,-3556 -3556,-3556zm0 427c-1728,0 -3129,1401 -3129,3129 0,1728 1401,3129 3129,3129 1728,0 3129,-1401 3129,-3129 0,-1728 -1401,-3129 -3129,-3129zm1707 4119l0 -2128 -1243 1204 1243 925zm-3413 0l1243 -925 -1243 -1204 0 2128zm1410 -762l-1410 910 3413 0 -1410 -910 -297 287 -297 -287zm-1308 -1366l1604 1288 1604 -1288 -3209 0z"/>
 </g>
</svg>
