<?xml version="1.0" encoding="UTF-8"?>
<!DOCTYPE svg PUBLIC "-//W3C//DTD SVG 1.1//EN" "http://www.w3.org/Graphics/SVG/1.1/DTD/svg11.dtd">
<!-- Creator: CorelDRAW X6 -->
<svg xmlns="http://www.w3.org/2000/svg" xml:space="preserve" width="7.11111in" height="7.11111in" version="1.1" style="shape-rendering:geometricPrecision; text-rendering:geometricPrecision; image-rendering:optimizeQuality; fill-rule:evenodd; clip-rule:evenodd"
viewBox="0 0 7111 7111"
 xmlns:xlink="http://www.w3.org/1999/xlink">
 <defs>
  <style type="text/css">
   <![CDATA[
    .fil0 {fill:black}
   ]]>
  </style>
 </defs>
 <g id="Layer_x0020_1">
  <metadata id="CorelCorpID_0Corel-Layer"/>
  <path class="fil0" d="M3556 7111c1964,0 3556,-1592 3556,-3556 0,-1964 -1592,-3556 -3556,-3556 -1964,0 -3556,1592 -3556,3556 0,1964 1592,3556 3556,3556zm0 -427c1728,0 3129,-1401 3129,-3129 0,-1728 -1401,-3129 -3129,-3129 -1728,0 -3129,1401 -3129,3129 0,1728 1401,3129 3129,3129zm-45 -3761l7 117 -113 -14c-411,-55 -771,-241 -1076,-553l-149 -155 -38 114c-81,255 -29,525 140,706 90,100 70,114 -86,55 -54,-19 -102,-33 -106,-26 -16,17 38,234 81,320 59,119 179,236 310,305l111 55 -131 2c-127,0 -131,2 -118,52 45,155 224,320 423,391l140 50 -122 76c-181,110 -393,172 -606,177 -102,2 -185,12 -185,19 0,24 276,157 436,210 482,155 1054,88 1483,-177 305,-188 610,-563 753,-925 77,-193 154,-546 154,-716 0,-110 7,-124 133,-255 75,-76 145,-160 158,-184 23,-45 20,-45 -95,-5 -192,72 -219,62 -124,-45 70,-76 154,-215 154,-255 0,-7 -34,5 -72,26 -41,24 -131,60 -199,81l-122 41 -111 -79c-61,-43 -147,-91 -192,-105 -115,-33 -292,-29 -396,10 -283,107 -461,384 -441,687 0,0 -20,-303 0,0z"/>
 </g>
</svg>
