<?xml version="1.0" encoding="UTF-8"?>
<!DOCTYPE svg PUBLIC "-//W3C//DTD SVG 1.1//EN" "http://www.w3.org/Graphics/SVG/1.1/DTD/svg11.dtd">
<!-- Creator: CorelDRAW X6 -->
<svg xmlns="http://www.w3.org/2000/svg" xml:space="preserve" width="7.11111in" height="7.11111in" version="1.1" style="shape-rendering:geometricPrecision; text-rendering:geometricPrecision; image-rendering:optimizeQuality; fill-rule:evenodd; clip-rule:evenodd"
viewBox="0 0 7111 7111"
 xmlns:xlink="http://www.w3.org/1999/xlink">
 <defs>
  <style type="text/css">
   <![CDATA[
    .fil0 {fill:black}
   ]]>
  </style>
 </defs>
 <g id="Layer_x0020_1">
  <metadata id="CorelCorpID_0Corel-Layer"/>
  <path class="fil0" d="M3556 0c-1964,0 -3556,1592 -3556,3556 0,1964 1592,3556 3556,3556 1964,0 3556,-1592 3556,-3556 0,-1964 -1592,-3556 -3556,-3556zm0 427c-1728,0 -3129,1401 -3129,3129 0,1728 1401,3129 3129,3129 1728,0 3129,-1401 3129,-3129 0,-1728 -1401,-3129 -3129,-3129zm1558 4481c3,-15 5,-29 7,-44l0 -2617c-2,-14 -4,-29 -7,-43 -27,-147 -143,-260 -285,-281 -6,-1 -12,-2 -17,-3l-2510 0c-15,3 -30,5 -45,9 -139,33 -241,150 -261,297 -1,6 -2,12 -3,18l0 2624c3,17 5,33 9,50 31,142 146,252 284,270 7,1 13,2 20,3l2503 0c16,-3 33,-5 49,-9 128,-28 232,-140 257,-274zm-2783 -201c0,70 58,130 124,130 734,0 1468,0 2203,0 67,0 125,-60 125,-130 0,-484 0,-967 0,-1450l0 -10 -299 0c42,141 55,284 39,430 -17,146 -62,282 -135,408 -73,126 -169,230 -285,313 -302,215 -700,234 -1020,46 -162,-95 -289,-227 -378,-398 -132,-255 -153,-522 -76,-799 -99,0 -198,0 -298,0l0 9c0,484 0,968 0,1452zm1211 -489c354,8 641,-288 648,-648 8,-371 -279,-678 -634,-677 -347,0 -629,292 -634,653 -5,371 279,665 619,673zm1240 -1590c0,-103 0,-207 0,-310 0,-74 -56,-133 -127,-133 -99,0 -197,0 -296,0 -71,0 -127,59 -127,133 0,102 0,205 0,307 0,15 3,31 8,46 18,55 65,88 124,88 48,0 95,0 143,0 51,-1 103,0 155,-1 66,-2 120,-61 120,-130z"/>
 </g>
</svg>
